<svg version="1.1" xmlns="http://www.w3.org/2000/svg" style="display: none;">
<symbol id="icon-twitter" viewBox="0 0 100 100">
	<rect x="0.148" fill="#29A7DF" width="100.68" height="100.681"/>
	<path fill="#FFFFFF" d="M84.047,29.524c-2.47,1.096-5.124,1.836-7.909,2.168c2.843-1.705,5.03-4.401,6.055-7.619
		c-2.656,1.579-5.604,2.727-8.741,3.344c-2.514-2.678-6.094-4.35-10.053-4.35c-7.605,0-13.771,6.167-13.771,13.771
		c0,1.08,0.122,2.129,0.356,3.136c-11.444-0.571-21.589-6.054-28.382-14.388c-1.184,2.037-1.863,4.4-1.863,6.925
		c0,4.775,2.431,8.993,6.123,11.46c-2.255-0.07-4.379-0.693-6.235-1.722v0.172c0,6.672,4.747,12.237,11.043,13.503
		c-1.153,0.313-2.373,0.485-3.626,0.485c-0.886,0-1.751-0.089-2.591-0.251c1.752,5.472,6.836,9.451,12.861,9.565
		c-4.71,3.692-10.646,5.895-17.102,5.895c-1.11,0-2.205-0.067-3.282-0.192c6.092,3.903,13.331,6.184,21.112,6.184
		c25.326,0,39.176-20.979,39.176-39.177c0-0.595-0.016-1.188-0.038-1.784C79.864,34.712,82.196,32.287,84.047,29.524z"/>
</symbol>
<symbol id="icon-tumblr" viewBox="0 0 100 100">
	<rect x="0.5" fill="#44546B" width="100.328" height="100.328"/>
	<path fill="#EDF0F3" d="M54.371,16.265v16.643h15.622v10.338H54.371v16.89c0,3.815,0.199,6.265,0.603,7.35
		c0.406,1.08,1.153,1.945,2.259,2.596c1.458,0.875,3.119,1.313,4.998,1.313c3.334,0,6.648-1.091,9.944-3.255v10.386
		c-2.812,1.327-5.361,2.257-7.643,2.791c-2.278,0.532-4.747,0.799-7.399,0.799c-3.007,0-5.665-0.378-7.98-1.141
		c-2.315-0.762-4.288-1.846-5.922-3.249c-1.633-1.408-2.766-2.905-3.396-4.494c-0.63-1.58-0.945-3.876-0.945-6.887V43.246h-7.28
		v-9.321c2.588-0.837,4.808-2.043,6.645-3.61c1.85-1.571,3.329-3.455,4.441-5.655c1.118-2.2,1.886-4.996,2.307-8.395H54.371z"/>
</symbol>
<symbol id="icon-rss" viewBox="0 0 100 100">
	<rect y="0.152" fill="#ED802C" width="99.849" height="99.848"/>
	<path fill="#FFFFFF" d="M20.001,72.134c5.179,0,9.376,4.202,9.376,9.379c0,5.184-4.197,9.378-9.376,9.378
		c-5.18,0-9.377-4.194-9.377-9.378C10.624,76.336,14.821,72.134,20.001,72.134z"/>
	<path fill="#FFFFFF" d="M10.633,57.87c8.791,0,17.048,3.438,23.261,9.674c6.216,6.247,9.637,14.564,9.637,23.42h13.538
		c0-25.715-20.83-46.636-46.436-46.636V57.87z"/>
	<path fill="#FFFFFF" d="M10.651,33.865c31.317,0,56.801,25.624,56.801,57.109h13.534c0-38.957-31.55-70.649-70.335-70.649V33.865z"
		/>
</symbol>
<symbol id="icon-linkedin" viewBox="0 0 100 100">
	<rect x="0.72" y="0.152" fill="#027BB5" width="100.53" height="100.529"/>
	<path fill="#FFFFFF" d="M17.921,38.96h14.184v45.567H17.921V38.96z M25.018,16.308c4.535,0,8.212,3.682,8.212,8.21
		c0,4.531-3.678,8.212-8.212,8.212c-4.552,0-8.221-3.682-8.221-8.212C16.797,19.99,20.466,16.308,25.018,16.308"/>
	<path fill="#FFFFFF" d="M40.997,38.96h13.584v6.227h0.192c1.889-3.585,6.515-7.36,13.409-7.36c14.337,0,16.989,9.434,16.989,21.706
		v24.995H71.015V62.372c0-5.289-0.104-12.086-7.366-12.086c-7.374,0-8.499,5.755-8.499,11.696v22.546H40.997V38.96z"/>
</symbol>
<symbol id="icon-html5" viewBox="0 0 100 100">
	<rect x="-0.001" y="0.327" fill="#EA622F" width="100.002" height="100.001"/>
	<path fill="#FFFFFF" d="M16.548,10.712l6.088,68.292l27.321,7.586l27.396-7.597l6.099-68.282H16.548z M70.752,26.921l-0.381,4.245
		l-0.169,1.883h-0.028H50h-0.027H38.151l0.767,8.578h11.055H50h17.184h2.254l-0.204,2.248l-1.968,22.052l-0.125,1.414L50,72.093
		l-0.038,0.008l-17.156-4.76l-1.172-13.153h3.873h4.532l0.597,6.682l9.326,2.519h0.011l9.339-2.523l0.974-10.859H50h-0.027H31.259
		l-2.061-23.084l-0.199-2.248h20.974H50h20.952L70.752,26.921z"/>
</symbol>
<symbol id="icon-google-plus" viewBox="0 0 100 100">
	<rect x="0.148" fill="#CC3731" width="100" height="100"/>
	<path fill="#FFFFFF" d="M48.555,15.671c0.628,0.388,1.33,0.954,2.111,1.699c0.75,0.778,1.484,1.737,2.203,2.868
		c0.689,1.069,1.3,2.33,1.834,3.79c0.438,1.456,0.655,3.158,0.655,5.102c-0.057,3.563-0.845,6.413-2.361,8.552
		c-0.739,1.036-1.526,1.992-2.357,2.867c-0.921,0.871-1.898,1.765-2.935,2.671c-0.596,0.615-1.143,1.311-1.647,2.09
		c-0.592,0.81-0.89,1.747-0.89,2.816c0,1.042,0.305,1.898,0.914,2.577c0.516,0.649,1.02,1.216,1.507,1.702l3.38,2.769
		c2.099,1.722,3.941,3.609,5.523,5.684c1.49,2.107,2.267,4.859,2.332,8.259c0,4.828-2.134,9.1-6.396,12.831
		c-4.416,3.854-10.796,5.845-19.13,5.974c-6.978-0.064-12.186-1.552-15.627-4.457c-3.469-2.719-5.208-5.967-5.208-9.75
		c0-1.84,0.562-3.898,1.697-6.161c1.092-2.26,3.078-4.251,5.952-5.963c3.224-1.84,6.613-3.072,10.165-3.687
		c3.517-0.515,6.435-0.808,8.76-0.872c-0.718-0.945-1.358-1.954-1.92-3.028c-0.656-1.042-0.981-2.298-0.981-3.76
		c0-0.879,0.123-1.616,0.372-2.2c0.219-0.621,0.424-1.186,0.609-1.709c-1.13,0.128-2.201,0.193-3.198,0.193
		c-5.305-0.065-9.346-1.734-12.126-5.004c-2.913-3.048-4.37-6.594-4.37-10.64c0-4.894,2.061-9.328,6.188-13.314
		c2.83-2.329,5.773-3.849,8.824-4.566c3.023-0.616,5.854-0.923,8.495-0.923h19.92l-6.151,3.592H48.555z M52.401,73.008
		c0-2.529-0.824-4.729-2.471-6.606c-1.746-1.782-4.472-3.969-8.183-6.563c-0.638-0.065-1.381-0.097-2.237-0.097
		c-0.507-0.062-1.809,0-3.9,0.193c-2.061,0.293-4.173,0.762-6.329,1.41c-0.508,0.195-1.219,0.487-2.138,0.876
		c-0.92,0.421-1.855,1.021-2.809,1.799c-0.92,0.809-1.696,1.813-2.329,3.013c-0.732,1.264-1.092,2.788-1.092,4.568
		c0,3.499,1.581,6.383,4.751,8.651c3.016,2.265,7.136,3.431,12.37,3.498c4.695-0.067,8.279-1.104,10.749-3.109
		C51.196,78.66,52.401,76.12,52.401,73.008z M38.515,43.811c2.623-0.098,4.808-1.042,6.554-2.828
		c0.845-1.265,1.387-2.563,1.626-3.894c0.144-1.333,0.219-2.448,0.219-3.36c0-3.925-1.005-7.887-3.014-11.877
		c-0.943-1.913-2.183-3.473-3.72-4.673c-1.572-1.132-3.375-1.734-5.415-1.8c-2.701,0.065-4.942,1.153-6.733,3.262
		c-1.51,2.208-2.231,4.674-2.163,7.401c0,3.602,1.051,7.347,3.159,11.245c1.022,1.815,2.336,3.357,3.954,4.622
		C34.595,43.178,36.439,43.811,38.515,43.811z"/>
	<polygon fill="#FFFFFF" points="87.833,22.958 77.383,22.958 77.383,12.505 72.319,12.505 72.319,22.958 61.869,22.958
		61.869,28.022 72.319,28.022 72.319,38.472 77.383,38.472 77.383,28.022 87.833,28.022 	"/>
</symbol>
<symbol id="icon-github" viewBox="0 0 100 100">
	<rect y="0.148" fill="#181617" width="100.038" height="100.041"/>
	<path fill="#FFFFFF" d="M50.019,16.28c-19.191,0-34.75,15.557-34.75,34.756c0,15.347,9.954,28.37,23.765,32.97
		c1.74,0.316,2.374-0.76,2.374-1.678c0-0.824-0.027-3.011-0.048-5.911c-9.666,2.1-11.704-4.657-11.704-4.657
		c-1.582-4.014-3.86-5.079-3.86-5.079c-3.154-2.159,0.241-2.115,0.241-2.115c3.49,0.246,5.324,3.58,5.324,3.58
		c3.097,5.313,8.132,3.772,10.114,2.886c0.313-2.248,1.21-3.772,2.203-4.644c-7.717-0.874-15.829-3.863-15.829-17.177
		c0-3.788,1.356-6.894,3.574-9.321c-0.355-0.882-1.547-4.413,0.343-9.199c0,0,2.915-0.933,9.556,3.565
		c2.771-0.772,5.748-1.159,8.7-1.172c2.952,0.013,5.925,0.399,8.697,1.172c6.639-4.498,9.554-3.565,9.554-3.565
		c1.893,4.786,0.701,8.317,0.342,9.199c2.224,2.427,3.573,5.533,3.573,9.321c0,13.353-8.129,16.29-15.869,17.151
		c1.246,1.073,2.36,3.188,2.36,6.433c0,4.646-0.043,8.393-0.043,9.533c0,0.928,0.629,2.007,2.391,1.667
		c13.795-4.6,23.743-17.617,23.743-32.959C84.77,31.837,69.216,16.28,50.019,16.28"/>
</symbol>
<symbol id="icon-facebook" viewBox="0 0 100 100">
	<rect x="0.5" fill="#3A5A98" width="100" height="100"/>
	<path fill="#FFFFFF" d="M87.276,59.563l1.964-15.23H74.158v-9.724c0-4.409,1.229-7.415,7.552-7.415l8.059-0.004V13.568
		c-1.392-0.186-6.175-0.6-11.749-0.6c-11.629,0-19.585,7.099-19.585,20.134v11.23H45.281v15.23h13.153V98.64h15.724V59.563H87.276z"
		/>
</symbol>
<symbol id="icon-email" viewBox="0 0 100 100">
	<rect fill="#424242" width="100" height="100"/>
	<g>
		<rect x="11" y="26" fill="none" stroke="#FFFFFF" stroke-width="6" stroke-miterlimit="10" width="78" height="48"/>
		<polyline fill="none" stroke="#FFFFFF" stroke-width="6" stroke-miterlimit="10" points="12.359,25.421 51.041,54.32
			88.833,25.421 		"/>
		<line fill="none" stroke="#FFFFFF" stroke-width="4" stroke-miterlimit="10" x1="60.576" y1="46.564" x2="88.833" y2="73.438"/>
		<line fill="none" stroke="#FFFFFF" stroke-width="4" stroke-miterlimit="10" x1="41.506" y1="46.564" x2="13.249" y2="73.438"/>
	</g>
</symbol>
<symbol id="icon-dribbble" viewBox="0 0 100 100">
	<rect x="0.086" fill="#E94C88" width="100.679" height="100.681"/>
	<path fill="#FFFFFF" d="M50.426,92.828c-22.769,0-41.29-18.526-41.29-41.292c0-22.765,18.521-41.288,41.29-41.288
		c22.768,0,41.29,18.522,41.29,41.288C91.716,74.302,73.193,92.828,50.426,92.828z M85.247,57.19
		c-1.206-0.384-10.916-3.277-21.968-1.509c4.613,12.675,6.492,22.999,6.85,25.147C78.041,75.479,83.674,67.004,85.247,57.19z
		 M64.203,84.056c-0.527-3.095-2.574-13.878-7.526-26.743l-0.232,0.078c-19.891,6.931-27.031,20.728-27.668,22.024
		c5.978,4.664,13.495,7.445,21.649,7.445C55.308,86.86,59.968,85.862,64.203,84.056z M24.223,75.174
		c0.798-1.368,10.479-17.394,28.668-23.272c0.457-0.153,0.924-0.29,1.388-0.422c-0.884-2.004-1.85-4.009-2.859-5.984
		c-17.61,5.271-34.701,5.052-36.244,5.018c-0.01,0.36-0.021,0.717-0.021,1.079C15.156,60.65,18.59,68.919,24.223,75.174z
		 M15.901,44.368c1.577,0.021,16.108,0.084,32.604-4.295c-5.842-10.391-12.144-19.124-13.077-20.397
		C25.564,24.327,18.188,33.424,15.901,44.368z M42.16,17.305c0.976,1.303,7.381,10.028,13.159,20.645
		C67.861,33.251,73.17,26.113,73.805,25.21c-6.227-5.525-14.419-8.887-23.379-8.887C47.579,16.323,44.812,16.663,42.16,17.305z
		 M77.726,29.29c-0.745,1.004-6.655,8.581-19.693,13.904c0.819,1.683,1.604,3.39,2.34,5.109c0.258,0.608,0.512,1.216,0.76,1.821
		c11.734-1.477,23.394,0.89,24.559,1.134C85.609,42.933,82.637,35.29,77.726,29.29z"/>
</symbol>
<symbol id="icon-pause" viewBox="0 0 100 100">
	<g>
		<rect fill="#333" x="10" y="10" width="30" height="80" fill="none" />
		<rect fill="#333" x="60" y="10" width="30" height="80" fill="none" />
	</g>
</symbol>
<symbol id="icon-play" viewBox="0 0 100 100">
	<g>
		<polyline fill="#333" points="10,10 90,50 10, 90" />
	</g>
</symbol>
</svg>
